<svg xmlns="http://www.w3.org/2000/svg" xmlns:xlink="http://www.w3.org/1999/xlink" width="248pt" height="1416pt" viewBox="0.00 0.00 248.00 1416.00">
<g id="graph0" class="graph" transform="scale(1 1) rotate(0) translate(4 1412.28)">
<title>NFA</title>
<polygon fill="white" stroke="none" points="-4,4 -4,-1412.28 244.1,-1412.28 244.1,4 -4,4"/>
<!-- 5 -->
<g id="node1" class="node">
<title>5</title>
<ellipse fill="none" stroke="black" cx="63.87" cy="-1099.11" rx="44.57" ry="44.57"/>
<text xml:space="preserve" text-anchor="middle" x="63.87" y="-1111.71" font-family="Times,serif" font-size="14.00">(5)</text>
<text xml:space="preserve" text-anchor="middle" x="63.87" y="-1094.91" font-family="Times,serif" font-size="14.00">[IN]</text>
<text xml:space="preserve" text-anchor="middle" x="63.87" y="-1078.11" font-family="Times,serif" font-size="14.00">[Char 4]</text>
</g>
<!-- 7 -->
<g id="node2" class="node">
<title>7</title>
<ellipse fill="none" stroke="black" cx="52.87" cy="-960.3" rx="52.87" ry="52.87"/>
<text xml:space="preserve" text-anchor="middle" x="52.87" y="-956.1" font-family="Times,serif" font-size="14.00">(7 Char: a)</text>
</g>
<!-- 5&#45;&gt;7 -->
<g id="edge1" class="edge">
<title>5-&gt;7</title>
<path fill="none" stroke="black" d="M60.36,-1054.45C59.59,-1044.9 58.76,-1034.61 57.95,-1024.48"/>
<polygon fill="black" stroke="black" points="61.45,-1024.35 57.16,-1014.66 54.47,-1024.91 61.45,-1024.35"/>
</g>
<!-- 6 -->
<g id="node3" class="node">
<title>6</title>
<ellipse fill="none" stroke="black" cx="63.87" cy="-821.49" rx="44.57" ry="44.57"/>
<text xml:space="preserve" text-anchor="middle" x="63.87" y="-834.09" font-family="Times,serif" font-size="14.00">(6)</text>
<text xml:space="preserve" text-anchor="middle" x="63.87" y="-817.29" font-family="Times,serif" font-size="14.00">[OUT]</text>
<text xml:space="preserve" text-anchor="middle" x="63.87" y="-800.49" font-family="Times,serif" font-size="14.00">[Char 4]</text>
</g>
<!-- 7&#45;&gt;6 -->
<g id="edge3" class="edge">
<title>7-&gt;6</title>
<path fill="none" stroke="black" d="M57.06,-907.19C57.84,-897.42 58.66,-887.18 59.46,-877.33"/>
<polygon fill="black" stroke="black" points="62.93,-877.75 60.25,-867.51 55.96,-877.19 62.93,-877.75"/>
</g>
<!-- 4 -->
<g id="node4" class="node">
<title>4</title>
<ellipse fill="none" stroke="black" cx="116.87" cy="-695.24" rx="45.67" ry="45.67"/>
<text xml:space="preserve" text-anchor="middle" x="116.87" y="-707.84" font-family="Times,serif" font-size="14.00">(4)</text>
<text xml:space="preserve" text-anchor="middle" x="116.87" y="-691.04" font-family="Times,serif" font-size="14.00">[OUT]</text>
<text xml:space="preserve" text-anchor="middle" x="116.87" y="-674.24" font-family="Times,serif" font-size="14.00">[Alter 5]</text>
</g>
<!-- 6&#45;&gt;4 -->
<g id="edge2" class="edge">
<title>6-&gt;4</title>
<path fill="none" stroke="black" d="M81.07,-780.15C85.43,-769.95 90.16,-758.84 94.72,-748.16"/>
<polygon fill="black" stroke="black" points="97.9,-749.62 98.61,-739.05 91.46,-746.87 97.9,-749.62"/>
</g>
<!-- 2 -->
<g id="node9" class="node">
<title>2</title>
<ellipse fill="none" stroke="black" cx="116.87" cy="-562.94" rx="50.63" ry="50.63"/>
<text xml:space="preserve" text-anchor="middle" x="116.87" y="-575.54" font-family="Times,serif" font-size="14.00">(2)</text>
<text xml:space="preserve" text-anchor="middle" x="116.87" y="-558.74" font-family="Times,serif" font-size="14.00">[OUT]</text>
<text xml:space="preserve" text-anchor="middle" x="116.87" y="-541.94" font-family="Times,serif" font-size="14.00">[Group 8]</text>
</g>
<!-- 4&#45;&gt;2 -->
<g id="edge9" class="edge">
<title>4-&gt;2</title>
<path fill="none" stroke="black" d="M116.87,-649.4C116.87,-641.6 116.87,-633.36 116.87,-625.2"/>
<polygon fill="black" stroke="black" points="120.37,-625.29 116.87,-615.29 113.37,-625.29 120.37,-625.29"/>
</g>
<!-- 8 -->
<g id="node5" class="node">
<title>8</title>
<ellipse fill="none" stroke="black" cx="175.87" cy="-1099.11" rx="44.57" ry="44.57"/>
<text xml:space="preserve" text-anchor="middle" x="175.87" y="-1111.71" font-family="Times,serif" font-size="14.00">(8)</text>
<text xml:space="preserve" text-anchor="middle" x="175.87" y="-1094.91" font-family="Times,serif" font-size="14.00">[IN]</text>
<text xml:space="preserve" text-anchor="middle" x="175.87" y="-1078.11" font-family="Times,serif" font-size="14.00">[Char 7]</text>
</g>
<!-- 10 -->
<g id="node6" class="node">
<title>10</title>
<ellipse fill="none" stroke="black" cx="181.87" cy="-960.3" rx="58.24" ry="58.24"/>
<text xml:space="preserve" text-anchor="middle" x="181.87" y="-956.1" font-family="Times,serif" font-size="14.00">(10 Char: b)</text>
</g>
<!-- 8&#45;&gt;10 -->
<g id="edge4" class="edge">
<title>8-&gt;10</title>
<path fill="none" stroke="black" d="M177.78,-1054.45C178.13,-1046.6 178.49,-1038.25 178.86,-1029.89"/>
<polygon fill="black" stroke="black" points="182.35,-1030.2 179.29,-1020.05 175.35,-1029.89 182.35,-1030.2"/>
</g>
<!-- 9 -->
<g id="node7" class="node">
<title>9</title>
<ellipse fill="none" stroke="black" cx="175.87" cy="-821.49" rx="44.57" ry="44.57"/>
<text xml:space="preserve" text-anchor="middle" x="175.87" y="-834.09" font-family="Times,serif" font-size="14.00">(9)</text>
<text xml:space="preserve" text-anchor="middle" x="175.87" y="-817.29" font-family="Times,serif" font-size="14.00">[OUT]</text>
<text xml:space="preserve" text-anchor="middle" x="175.87" y="-800.49" font-family="Times,serif" font-size="14.00">[Char 7]</text>
</g>
<!-- 10&#45;&gt;9 -->
<g id="edge6" class="edge">
<title>10-&gt;9</title>
<path fill="none" stroke="black" d="M179.34,-901.68C178.99,-893.73 178.63,-885.58 178.29,-877.68"/>
<polygon fill="black" stroke="black" points="181.79,-877.67 177.85,-867.84 174.8,-877.98 181.79,-877.67"/>
</g>
<!-- 9&#45;&gt;4 -->
<g id="edge5" class="edge">
<title>9-&gt;4</title>
<path fill="none" stroke="black" d="M157.04,-780.83C151.92,-770.07 146.32,-758.26 140.96,-746.98"/>
<polygon fill="black" stroke="black" points="144.23,-745.7 136.77,-738.17 137.9,-748.7 144.23,-745.7"/>
</g>
<!-- 3 -->
<g id="node8" class="node">
<title>3</title>
<ellipse fill="none" stroke="black" cx="116.87" cy="-1225.36" rx="45.67" ry="45.67"/>
<text xml:space="preserve" text-anchor="middle" x="116.87" y="-1237.96" font-family="Times,serif" font-size="14.00">(3)</text>
<text xml:space="preserve" text-anchor="middle" x="116.87" y="-1221.16" font-family="Times,serif" font-size="14.00">[IN]</text>
<text xml:space="preserve" text-anchor="middle" x="116.87" y="-1204.36" font-family="Times,serif" font-size="14.00">[Alter 5]</text>
</g>
<!-- 3&#45;&gt;5 -->
<g id="edge7" class="edge">
<title>3-&gt;5</title>
<path fill="none" stroke="black" d="M99.22,-1182.99C94.84,-1172.71 90.09,-1161.59 85.54,-1150.92"/>
<polygon fill="black" stroke="black" points="88.81,-1149.68 81.67,-1141.85 82.38,-1152.42 88.81,-1149.68"/>
</g>
<!-- 3&#45;&gt;8 -->
<g id="edge8" class="edge">
<title>3-&gt;8</title>
<path fill="none" stroke="black" d="M136.18,-1183.68C141.33,-1172.84 146.95,-1161.01 152.29,-1149.75"/>
<polygon fill="black" stroke="black" points="155.33,-1151.52 156.46,-1140.98 149.01,-1148.52 155.33,-1151.52"/>
</g>
<!-- 11 -->
<g id="node11" class="node">
<title>11</title>
<ellipse fill="none" stroke="black" cx="116.87" cy="-431.74" rx="44.57" ry="44.57"/>
<text xml:space="preserve" text-anchor="middle" x="116.87" y="-444.34" font-family="Times,serif" font-size="14.00">(11)</text>
<text xml:space="preserve" text-anchor="middle" x="116.87" y="-427.54" font-family="Times,serif" font-size="14.00">[IN]</text>
<text xml:space="preserve" text-anchor="middle" x="116.87" y="-410.74" font-family="Times,serif" font-size="14.00">[Char 9]</text>
</g>
<!-- 2&#45;&gt;11 -->
<g id="edge11" class="edge">
<title>2-&gt;11</title>
<path fill="none" stroke="black" d="M116.87,-511.99C116.87,-504.17 116.87,-496.04 116.87,-488.1"/>
<polygon fill="black" stroke="black" points="120.37,-488.18 116.87,-478.18 113.37,-488.18 120.37,-488.18"/>
</g>
<!-- 1 -->
<g id="node10" class="node">
<title>1</title>
<ellipse fill="none" stroke="black" cx="116.87" cy="-1357.66" rx="50.63" ry="50.63"/>
<text xml:space="preserve" text-anchor="middle" x="116.87" y="-1370.26" font-family="Times,serif" font-size="14.00">(1)</text>
<text xml:space="preserve" text-anchor="middle" x="116.87" y="-1353.46" font-family="Times,serif" font-size="14.00">[IN]</text>
<text xml:space="preserve" text-anchor="middle" x="116.87" y="-1336.66" font-family="Times,serif" font-size="14.00">[Group 8]</text>
</g>
<!-- 1&#45;&gt;3 -->
<g id="edge10" class="edge">
<title>1-&gt;3</title>
<path fill="none" stroke="black" d="M116.87,-1306.65C116.87,-1298.84 116.87,-1290.72 116.87,-1282.78"/>
<polygon fill="black" stroke="black" points="120.37,-1282.84 116.87,-1272.84 113.37,-1282.84 120.37,-1282.84"/>
</g>
<!-- 13 -->
<g id="node12" class="node">
<title>13</title>
<ellipse fill="none" stroke="black" cx="116.87" cy="-293.47" rx="57.69" ry="57.69"/>
<text xml:space="preserve" text-anchor="middle" x="116.87" y="-289.27" font-family="Times,serif" font-size="14.00">(13 Char: c)</text>
</g>
<!-- 11&#45;&gt;13 -->
<g id="edge12" class="edge">
<title>11-&gt;13</title>
<path fill="none" stroke="black" d="M116.87,-386.88C116.87,-379.07 116.87,-370.77 116.87,-362.47"/>
<polygon fill="black" stroke="black" points="120.37,-362.72 116.87,-352.72 113.37,-362.72 120.37,-362.72"/>
</g>
<!-- 12 -->
<g id="node13" class="node">
<title>12</title>
<ellipse fill="none" stroke="black" cx="116.87" cy="-155.2" rx="44.57" ry="44.57"/>
<text xml:space="preserve" text-anchor="middle" x="116.87" y="-167.8" font-family="Times,serif" font-size="14.00">(12)</text>
<text xml:space="preserve" text-anchor="middle" x="116.87" y="-151" font-family="Times,serif" font-size="14.00">[OUT]</text>
<text xml:space="preserve" text-anchor="middle" x="116.87" y="-134.2" font-family="Times,serif" font-size="14.00">[Char 9]</text>
</g>
<!-- 13&#45;&gt;12 -->
<g id="edge14" class="edge">
<title>13-&gt;12</title>
<path fill="none" stroke="black" d="M116.87,-235.47C116.87,-227.53 116.87,-219.39 116.87,-211.48"/>
<polygon fill="black" stroke="black" points="120.37,-211.64 116.87,-201.64 113.37,-211.64 120.37,-211.64"/>
</g>
<!-- 0 -->
<g id="node14" class="node">
<title>0</title>
<ellipse fill="none" stroke="black" cx="116.87" cy="-37.31" rx="37.31" ry="37.31"/>
<text xml:space="preserve" text-anchor="middle" x="116.87" y="-33.11" font-family="Times,serif" font-size="14.00">(END)</text>
</g>
<!-- 12&#45;&gt;0 -->
<g id="edge13" class="edge">
<title>12-&gt;0</title>
<path fill="none" stroke="black" d="M116.87,-110.39C116.87,-102.55 116.87,-94.35 116.87,-86.4"/>
<polygon fill="black" stroke="black" points="120.37,-86.52 116.87,-76.52 113.37,-86.52 120.37,-86.52"/>
</g>
</g>
</svg>