<svg xmlns="http://www.w3.org/2000/svg" xmlns:xlink="http://www.w3.org/1999/xlink" width="438pt" height="2521pt" viewBox="0.00 0.00 438.00 2521.00">
<g id="graph0" class="graph" transform="scale(1 1) rotate(0) translate(4 2517.08)">
<title>NFA</title>
<polygon fill="white" stroke="none" points="-4,4 -4,-2517.08 433.82,-2517.08 433.82,4 -4,4"/>
<!-- 13 -->
<g id="node1" class="node">
<title>13</title>
<ellipse fill="none" stroke="black" cx="100.82" cy="-2468.51" rx="44.57" ry="44.57"/>
<text xml:space="preserve" text-anchor="middle" x="100.82" y="-2481.11" font-family="Times,serif" font-size="14.00">(13)</text>
<text xml:space="preserve" text-anchor="middle" x="100.82" y="-2464.31" font-family="Times,serif" font-size="14.00">[IN]</text>
<text xml:space="preserve" text-anchor="middle" x="100.82" y="-2447.51" font-family="Times,serif" font-size="14.00">[Char 6]</text>
</g>
<!-- 15 -->
<g id="node2" class="node">
<title>15</title>
<ellipse fill="none" stroke="black" cx="100.82" cy="-2330.24" rx="57.69" ry="57.69"/>
<text xml:space="preserve" text-anchor="middle" x="100.82" y="-2326.04" font-family="Times,serif" font-size="14.00">(15 Char: a)</text>
</g>
<!-- 13&#45;&gt;15 -->
<g id="edge1" class="edge">
<title>13-&gt;15</title>
<path fill="none" stroke="black" d="M100.82,-2423.64C100.82,-2415.83 100.82,-2407.53 100.82,-2399.24"/>
<polygon fill="black" stroke="black" points="104.32,-2399.48 100.82,-2389.48 97.32,-2399.48 104.32,-2399.48"/>
</g>
<!-- 14 -->
<g id="node3" class="node">
<title>14</title>
<ellipse fill="none" stroke="black" cx="128.82" cy="-2191.97" rx="44.57" ry="44.57"/>
<text xml:space="preserve" text-anchor="middle" x="128.82" y="-2204.57" font-family="Times,serif" font-size="14.00">(14)</text>
<text xml:space="preserve" text-anchor="middle" x="128.82" y="-2187.77" font-family="Times,serif" font-size="14.00">[OUT]</text>
<text xml:space="preserve" text-anchor="middle" x="128.82" y="-2170.97" font-family="Times,serif" font-size="14.00">[Char 6]</text>
</g>
<!-- 15&#45;&gt;14 -->
<g id="edge4" class="edge">
<title>15-&gt;14</title>
<path fill="none" stroke="black" d="M112.29,-2273.42C114.07,-2264.73 115.91,-2255.77 117.69,-2247.12"/>
<polygon fill="black" stroke="black" points="121.09,-2247.96 119.67,-2237.46 114.23,-2246.55 121.09,-2247.96"/>
</g>
<!-- 14&#45;&gt;13 -->
<g id="edge2" class="edge">
<title>14-&gt;13</title>
<path fill="none" stroke="black" d="M151.57,-2230.5C158.16,-2243.37 164.48,-2258.15 167.82,-2272.54 179.4,-2322.5 185.4,-2339.76 167.82,-2387.93 162.24,-2403.22 152.28,-2417.61 141.72,-2429.83"/>
<polygon fill="black" stroke="black" points="139.15,-2427.46 135,-2437.22 144.32,-2432.18 139.15,-2427.46"/>
</g>
<!-- 12 -->
<g id="node4" class="node">
<title>12</title>
<ellipse fill="none" stroke="black" cx="128.82" cy="-2058.58" rx="52.82" ry="52.82"/>
<text xml:space="preserve" text-anchor="middle" x="128.82" y="-2071.18" font-family="Times,serif" font-size="14.00">(12)</text>
<text xml:space="preserve" text-anchor="middle" x="128.82" y="-2054.38" font-family="Times,serif" font-size="14.00">[OUT]</text>
<text xml:space="preserve" text-anchor="middle" x="128.82" y="-2037.58" font-family="Times,serif" font-size="14.00">[Repeat 7]</text>
</g>
<!-- 14&#45;&gt;12 -->
<g id="edge3" class="edge">
<title>14-&gt;12</title>
<path fill="none" stroke="black" d="M128.82,-2147.22C128.82,-2139.5 128.82,-2131.34 128.82,-2123.21"/>
<polygon fill="black" stroke="black" points="132.32,-2123.31 128.82,-2113.31 125.32,-2123.31 132.32,-2123.31"/>
</g>
<!-- 10 -->
<g id="node6" class="node">
<title>10</title>
<ellipse fill="none" stroke="black" cx="156.82" cy="-1924.09" rx="45.67" ry="45.67"/>
<text xml:space="preserve" text-anchor="middle" x="156.82" y="-1936.69" font-family="Times,serif" font-size="14.00">(10)</text>
<text xml:space="preserve" text-anchor="middle" x="156.82" y="-1919.89" font-family="Times,serif" font-size="14.00">[OUT]</text>
<text xml:space="preserve" text-anchor="middle" x="156.82" y="-1903.09" font-family="Times,serif" font-size="14.00">[Alter 8]</text>
</g>
<!-- 12&#45;&gt;10 -->
<g id="edge7" class="edge">
<title>12-&gt;10</title>
<path fill="none" stroke="black" d="M139.56,-2006.73C141.41,-1998.01 143.33,-1988.91 145.19,-1980.09"/>
<polygon fill="black" stroke="black" points="148.56,-1981.09 147.2,-1970.58 141.71,-1979.64 148.56,-1981.09"/>
</g>
<!-- 11 -->
<g id="node5" class="node">
<title>11</title>
<ellipse fill="none" stroke="black" cx="52.82" cy="-340.34" rx="52.82" ry="52.82"/>
<text xml:space="preserve" text-anchor="middle" x="52.82" y="-352.94" font-family="Times,serif" font-size="14.00">(11)</text>
<text xml:space="preserve" text-anchor="middle" x="52.82" y="-336.14" font-family="Times,serif" font-size="14.00">[IN]</text>
<text xml:space="preserve" text-anchor="middle" x="52.82" y="-319.34" font-family="Times,serif" font-size="14.00">[Repeat 7]</text>
</g>
<!-- 11&#45;&gt;13 -->
<g id="edge5" class="edge">
<title>11-&gt;13</title>
<path fill="none" stroke="black" d="M41.31,-392.25C30.13,-446.25 14.82,-534.23 14.82,-611.07 14.82,-2192.97 14.82,-2192.97 14.82,-2192.97 14.82,-2280.03 0.03,-2307.69 33.82,-2387.93 40.08,-2402.8 50.12,-2416.98 60.55,-2429.14"/>
<polygon fill="black" stroke="black" points="57.87,-2431.39 67.16,-2436.5 63.08,-2426.72 57.87,-2431.39"/>
</g>
<!-- 11&#45;&gt;12 -->
<g id="edge6" class="edge">
<title>11-&gt;12</title>
<path fill="none" stroke="black" d="M52.82,-393.55C52.82,-447.89 52.82,-535.45 52.82,-611.07 52.82,-1787.84 52.82,-1787.84 52.82,-1787.84 52.82,-1863.33 80.73,-1946.4 102.73,-2000.13"/>
<polygon fill="black" stroke="black" points="99.38,-2001.19 106.46,-2009.07 105.84,-1998.5 99.38,-2001.19"/>
</g>
<!-- 8 -->
<g id="node11" class="node">
<title>8</title>
<ellipse fill="none" stroke="black" cx="156.82" cy="-1786.84" rx="55.58" ry="55.58"/>
<text xml:space="preserve" text-anchor="middle" x="156.82" y="-1799.44" font-family="Times,serif" font-size="14.00">(8)</text>
<text xml:space="preserve" text-anchor="middle" x="156.82" y="-1782.64" font-family="Times,serif" font-size="14.00">[OUT]</text>
<text xml:space="preserve" text-anchor="middle" x="156.82" y="-1765.84" font-family="Times,serif" font-size="14.00">[Group 11]</text>
</g>
<!-- 10&#45;&gt;8 -->
<g id="edge13" class="edge">
<title>10-&gt;8</title>
<path fill="none" stroke="black" d="M156.82,-1878.05C156.82,-1870.32 156.82,-1862.15 156.82,-1854"/>
<polygon fill="black" stroke="black" points="160.32,-1854.07 156.82,-1844.07 153.32,-1854.07 160.32,-1854.07"/>
</g>
<!-- 16 -->
<g id="node7" class="node">
<title>16</title>
<ellipse fill="none" stroke="black" cx="218.82" cy="-340.34" rx="49.52" ry="49.52"/>
<text xml:space="preserve" text-anchor="middle" x="218.82" y="-352.94" font-family="Times,serif" font-size="14.00">(16)</text>
<text xml:space="preserve" text-anchor="middle" x="218.82" y="-336.14" font-family="Times,serif" font-size="14.00">[IN]</text>
<text xml:space="preserve" text-anchor="middle" x="218.82" y="-319.34" font-family="Times,serif" font-size="14.00">[Char 10]</text>
</g>
<!-- 18 -->
<g id="node8" class="node">
<title>18</title>
<ellipse fill="none" stroke="black" cx="301.82" cy="-193.29" rx="58.24" ry="58.24"/>
<text xml:space="preserve" text-anchor="middle" x="301.82" y="-189.09" font-family="Times,serif" font-size="14.00">(18 Char: b)</text>
</g>
<!-- 16&#45;&gt;18 -->
<g id="edge8" class="edge">
<title>16-&gt;18</title>
<path fill="none" stroke="black" d="M243.05,-296.99C250.71,-283.61 259.32,-268.55 267.54,-254.18"/>
<polygon fill="black" stroke="black" points="270.48,-256.1 272.4,-245.69 264.4,-252.63 270.48,-256.1"/>
</g>
<!-- 17 -->
<g id="node9" class="node">
<title>17</title>
<ellipse fill="none" stroke="black" cx="344.82" cy="-49.52" rx="49.52" ry="49.52"/>
<text xml:space="preserve" text-anchor="middle" x="344.82" y="-62.12" font-family="Times,serif" font-size="14.00">(17)</text>
<text xml:space="preserve" text-anchor="middle" x="344.82" y="-45.32" font-family="Times,serif" font-size="14.00">[OUT]</text>
<text xml:space="preserve" text-anchor="middle" x="344.82" y="-28.52" font-family="Times,serif" font-size="14.00">[Char 10]</text>
</g>
<!-- 18&#45;&gt;17 -->
<g id="edge10" class="edge">
<title>18-&gt;17</title>
<path fill="none" stroke="black" d="M318.56,-137.07C321.48,-127.47 324.51,-117.46 327.44,-107.81"/>
<polygon fill="black" stroke="black" points="330.7,-109.13 330.25,-98.54 324,-107.09 330.7,-109.13"/>
</g>
<!-- 17&#45;&gt;10 -->
<g id="edge9" class="edge">
<title>17-&gt;10</title>
<path fill="none" stroke="black" d="M366.27,-94.37C391.45,-149.97 429.82,-249.44 429.82,-339.34 429.82,-1638.5 429.82,-1638.5 429.82,-1638.5 429.82,-1765.22 287.12,-1857.46 208.06,-1898.84"/>
<polygon fill="black" stroke="black" points="206.92,-1895.5 199.62,-1903.18 210.12,-1901.72 206.92,-1895.5"/>
</g>
<!-- 9 -->
<g id="node10" class="node">
<title>9</title>
<ellipse fill="none" stroke="black" cx="156.82" cy="-474.83" rx="45.67" ry="45.67"/>
<text xml:space="preserve" text-anchor="middle" x="156.82" y="-487.43" font-family="Times,serif" font-size="14.00">(9)</text>
<text xml:space="preserve" text-anchor="middle" x="156.82" y="-470.63" font-family="Times,serif" font-size="14.00">[IN]</text>
<text xml:space="preserve" text-anchor="middle" x="156.82" y="-453.83" font-family="Times,serif" font-size="14.00">[Alter 8]</text>
</g>
<!-- 9&#45;&gt;11 -->
<g id="edge11" class="edge">
<title>9-&gt;11</title>
<path fill="none" stroke="black" d="M128.95,-438.32C117.68,-423.97 104.47,-407.14 92.25,-391.57"/>
<polygon fill="black" stroke="black" points="95.05,-389.47 86.12,-383.77 89.54,-393.8 95.05,-389.47"/>
</g>
<!-- 9&#45;&gt;16 -->
<g id="edge12" class="edge">
<title>9-&gt;16</title>
<path fill="none" stroke="black" d="M175.92,-432.99C181.43,-421.23 187.52,-408.21 193.35,-395.77"/>
<polygon fill="black" stroke="black" points="196.45,-397.4 197.51,-386.86 190.11,-394.43 196.45,-397.4"/>
</g>
<!-- 7 -->
<g id="node12" class="node">
<title>7</title>
<ellipse fill="none" stroke="black" cx="156.82" cy="-612.07" rx="55.58" ry="55.58"/>
<text xml:space="preserve" text-anchor="middle" x="156.82" y="-624.67" font-family="Times,serif" font-size="14.00">(7)</text>
<text xml:space="preserve" text-anchor="middle" x="156.82" y="-607.87" font-family="Times,serif" font-size="14.00">[IN]</text>
<text xml:space="preserve" text-anchor="middle" x="156.82" y="-591.07" font-family="Times,serif" font-size="14.00">[Group 11]</text>
</g>
<!-- 8&#45;&gt;7 -->
<g id="edge15" class="edge">
<title>8-&gt;7</title>
<path fill="none" stroke="black" d="M128.11,-1738.87C121,-1725.25 114.17,-1710.05 109.82,-1695.26 84.56,-1609.6 90.82,-1584.52 90.82,-1495.21 90.82,-1495.21 90.82,-1495.21 90.82,-911.95 90.82,-818.99 83.7,-792.87 109.82,-703.65 113.1,-692.44 117.81,-681 122.99,-670.18"/>
<polygon fill="black" stroke="black" points="126.04,-671.9 127.4,-661.39 119.79,-668.76 126.04,-671.9"/>
</g>
<!-- 6 -->
<g id="node13" class="node">
<title>6</title>
<ellipse fill="none" stroke="black" cx="176.82" cy="-1637.5" rx="57.77" ry="57.77"/>
<text xml:space="preserve" text-anchor="middle" x="176.82" y="-1650.1" font-family="Times,serif" font-size="14.00">(6)</text>
<text xml:space="preserve" text-anchor="middle" x="176.82" y="-1633.3" font-family="Times,serif" font-size="14.00">[OUT]</text>
<text xml:space="preserve" text-anchor="middle" x="176.82" y="-1616.5" font-family="Times,serif" font-size="14.00">[Repeat 12]</text>
</g>
<!-- 8&#45;&gt;6 -->
<g id="edge16" class="edge">
<title>8-&gt;6</title>
<path fill="none" stroke="black" d="M164.21,-1731.39C165.31,-1723.28 166.46,-1714.83 167.59,-1706.48"/>
<polygon fill="black" stroke="black" points="171.04,-1707.07 168.92,-1696.69 164.1,-1706.13 171.04,-1707.07"/>
</g>
<!-- 7&#45;&gt;9 -->
<g id="edge14" class="edge">
<title>7-&gt;9</title>
<path fill="none" stroke="black" d="M156.82,-556.06C156.82,-548.2 156.82,-540.1 156.82,-532.22"/>
<polygon fill="black" stroke="black" points="160.32,-532.38 156.82,-522.38 153.32,-532.38 160.32,-532.38"/>
</g>
<!-- 19 -->
<g id="node15" class="node">
<title>19</title>
<ellipse fill="none" stroke="black" cx="210.82" cy="-1494.21" rx="49.52" ry="49.52"/>
<text xml:space="preserve" text-anchor="middle" x="210.82" y="-1506.81" font-family="Times,serif" font-size="14.00">(19)</text>
<text xml:space="preserve" text-anchor="middle" x="210.82" y="-1490.01" font-family="Times,serif" font-size="14.00">[IN]</text>
<text xml:space="preserve" text-anchor="middle" x="210.82" y="-1473.21" font-family="Times,serif" font-size="14.00">[Char 13]</text>
</g>
<!-- 6&#45;&gt;19 -->
<g id="edge19" class="edge">
<title>6-&gt;19</title>
<path fill="none" stroke="black" d="M190.16,-1581.06C192.33,-1572.05 194.58,-1562.69 196.76,-1553.61"/>
<polygon fill="black" stroke="black" points="200.1,-1554.72 199.03,-1544.18 193.29,-1553.08 200.1,-1554.72"/>
</g>
<!-- 5 -->
<g id="node14" class="node">
<title>5</title>
<ellipse fill="none" stroke="black" cx="176.82" cy="-761.42" rx="57.77" ry="57.77"/>
<text xml:space="preserve" text-anchor="middle" x="176.82" y="-774.02" font-family="Times,serif" font-size="14.00">(5)</text>
<text xml:space="preserve" text-anchor="middle" x="176.82" y="-757.22" font-family="Times,serif" font-size="14.00">[IN]</text>
<text xml:space="preserve" text-anchor="middle" x="176.82" y="-740.42" font-family="Times,serif" font-size="14.00">[Repeat 12]</text>
</g>
<!-- 5&#45;&gt;7 -->
<g id="edge17" class="edge">
<title>5-&gt;7</title>
<path fill="none" stroke="black" d="M169.14,-703.87C168.02,-695.61 166.86,-687.05 165.72,-678.63"/>
<polygon fill="black" stroke="black" points="169.19,-678.22 164.38,-668.79 162.26,-679.17 169.19,-678.22"/>
</g>
<!-- 5&#45;&gt;6 -->
<g id="edge18" class="edge">
<title>5-&gt;6</title>
<path fill="none" stroke="black" d="M157.84,-816.37C154,-828.97 150.36,-842.44 147.82,-855.18 129.62,-946.35 128.82,-970.52 128.82,-1063.48 128.82,-1351.99 128.82,-1351.99 128.82,-1351.99 128.82,-1437.82 135.5,-1459.47 151.82,-1543.73 153.53,-1552.58 155.63,-1561.83 157.89,-1570.91"/>
<polygon fill="black" stroke="black" points="154.45,-1571.58 160.32,-1580.4 161.23,-1569.84 154.45,-1571.58"/>
</g>
<!-- 21 -->
<g id="node16" class="node">
<title>21</title>
<ellipse fill="none" stroke="black" cx="214.82" cy="-1350.99" rx="57.69" ry="57.69"/>
<text xml:space="preserve" text-anchor="middle" x="214.82" y="-1346.79" font-family="Times,serif" font-size="14.00">(21 Char: c)</text>
</g>
<!-- 19&#45;&gt;21 -->
<g id="edge20" class="edge">
<title>19-&gt;21</title>
<path fill="none" stroke="black" d="M212.2,-1444.21C212.42,-1436.52 212.65,-1428.46 212.88,-1420.43"/>
<polygon fill="black" stroke="black" points="216.37,-1420.75 213.15,-1410.66 209.37,-1420.55 216.37,-1420.75"/>
</g>
<!-- 20 -->
<g id="node17" class="node">
<title>20</title>
<ellipse fill="none" stroke="black" cx="213.82" cy="-1207.77" rx="49.52" ry="49.52"/>
<text xml:space="preserve" text-anchor="middle" x="213.82" y="-1220.37" font-family="Times,serif" font-size="14.00">(20)</text>
<text xml:space="preserve" text-anchor="middle" x="213.82" y="-1203.57" font-family="Times,serif" font-size="14.00">[OUT]</text>
<text xml:space="preserve" text-anchor="middle" x="213.82" y="-1186.77" font-family="Times,serif" font-size="14.00">[Char 13]</text>
</g>
<!-- 21&#45;&gt;20 -->
<g id="edge22" class="edge">
<title>21-&gt;20</title>
<path fill="none" stroke="black" d="M214.41,-1292.96C214.36,-1285.04 214.3,-1276.88 214.24,-1268.9"/>
<polygon fill="black" stroke="black" points="217.74,-1268.89 214.17,-1258.91 210.74,-1268.94 217.74,-1268.89"/>
</g>
<!-- 4 -->
<g id="node18" class="node">
<title>4</title>
<ellipse fill="none" stroke="black" cx="212.82" cy="-1064.48" rx="55.58" ry="55.58"/>
<text xml:space="preserve" text-anchor="middle" x="212.82" y="-1077.08" font-family="Times,serif" font-size="14.00">(4)</text>
<text xml:space="preserve" text-anchor="middle" x="212.82" y="-1060.28" font-family="Times,serif" font-size="14.00">[OUT]</text>
<text xml:space="preserve" text-anchor="middle" x="212.82" y="-1043.48" font-family="Times,serif" font-size="14.00">[Group 14]</text>
</g>
<!-- 20&#45;&gt;4 -->
<g id="edge21" class="edge">
<title>20-&gt;4</title>
<path fill="none" stroke="black" d="M213.47,-1157.75C213.41,-1149.33 213.35,-1140.45 213.28,-1131.66"/>
<polygon fill="black" stroke="black" points="216.79,-1131.7 213.21,-1121.73 209.79,-1131.75 216.79,-1131.7"/>
</g>
<!-- 3 -->
<g id="node19" class="node">
<title>3</title>
<ellipse fill="none" stroke="black" cx="212.82" cy="-912.95" rx="55.58" ry="55.58"/>
<text xml:space="preserve" text-anchor="middle" x="212.82" y="-925.55" font-family="Times,serif" font-size="14.00">(3)</text>
<text xml:space="preserve" text-anchor="middle" x="212.82" y="-908.75" font-family="Times,serif" font-size="14.00">[IN]</text>
<text xml:space="preserve" text-anchor="middle" x="212.82" y="-891.95" font-family="Times,serif" font-size="14.00">[Group 14]</text>
</g>
<!-- 4&#45;&gt;3 -->
<g id="edge24" class="edge">
<title>4-&gt;3</title>
<path fill="none" stroke="black" d="M212.82,-1008.65C212.82,-999.46 212.82,-989.85 212.82,-980.41"/>
<polygon fill="black" stroke="black" points="216.32,-980.54 212.82,-970.54 209.32,-980.54 216.32,-980.54"/>
</g>
<!-- 2 -->
<g id="node20" class="node">
<title>2</title>
<ellipse fill="none" stroke="black" cx="343.82" cy="-912.95" rx="57.77" ry="57.77"/>
<text xml:space="preserve" text-anchor="middle" x="343.82" y="-925.55" font-family="Times,serif" font-size="14.00">(2)</text>
<text xml:space="preserve" text-anchor="middle" x="343.82" y="-908.75" font-family="Times,serif" font-size="14.00">[OUT]</text>
<text xml:space="preserve" text-anchor="middle" x="343.82" y="-891.95" font-family="Times,serif" font-size="14.00">[Repeat 15]</text>
</g>
<!-- 4&#45;&gt;2 -->
<g id="edge25" class="edge">
<title>4-&gt;2</title>
<path fill="none" stroke="black" d="M248.96,-1022.22C264.26,-1004.76 282.25,-984.22 298.43,-965.76"/>
<polygon fill="black" stroke="black" points="301.01,-968.12 304.97,-958.3 295.74,-963.51 301.01,-968.12"/>
</g>
<!-- 3&#45;&gt;5 -->
<g id="edge23" class="edge">
<title>3-&gt;5</title>
<path fill="none" stroke="black" d="M199.92,-858.39C197.62,-848.83 195.2,-838.76 192.82,-828.9"/>
<polygon fill="black" stroke="black" points="196.27,-828.25 190.52,-819.35 189.46,-829.89 196.27,-828.25"/>
</g>
<!-- 0 -->
<g id="node22" class="node">
<title>0</title>
<ellipse fill="none" stroke="black" cx="343.82" cy="-761.42" rx="37.31" ry="37.31"/>
<text xml:space="preserve" text-anchor="middle" x="343.82" y="-757.22" font-family="Times,serif" font-size="14.00">(END)</text>
</g>
<!-- 2&#45;&gt;0 -->
<g id="edge28" class="edge">
<title>2-&gt;0</title>
<path fill="none" stroke="black" d="M343.82,-854.99C343.82,-840.14 343.82,-824.3 343.82,-809.99"/>
<polygon fill="black" stroke="black" points="347.32,-810.41 343.82,-800.41 340.32,-810.41 347.32,-810.41"/>
</g>
<!-- 1 -->
<g id="node21" class="node">
<title>1</title>
<ellipse fill="none" stroke="black" cx="343.82" cy="-1064.48" rx="57.77" ry="57.77"/>
<text xml:space="preserve" text-anchor="middle" x="343.82" y="-1077.08" font-family="Times,serif" font-size="14.00">(1)</text>
<text xml:space="preserve" text-anchor="middle" x="343.82" y="-1060.28" font-family="Times,serif" font-size="14.00">[IN]</text>
<text xml:space="preserve" text-anchor="middle" x="343.82" y="-1043.48" font-family="Times,serif" font-size="14.00">[Repeat 15]</text>
</g>
<!-- 1&#45;&gt;3 -->
<g id="edge26" class="edge">
<title>1-&gt;3</title>
<path fill="none" stroke="black" d="M305.93,-1020.23C290.46,-1002.58 272.48,-982.06 256.47,-963.78"/>
<polygon fill="black" stroke="black" points="259.49,-961.91 250.27,-956.7 254.22,-966.52 259.49,-961.91"/>
</g>
<!-- 1&#45;&gt;2 -->
<g id="edge27" class="edge">
<title>1-&gt;2</title>
<path fill="none" stroke="black" d="M343.82,-1006.52C343.82,-998.56 343.82,-990.3 343.82,-982.16"/>
<polygon fill="black" stroke="black" points="347.32,-982.26 343.82,-972.26 340.32,-982.26 347.32,-982.26"/>
</g>
</g>
</svg>